HIERARCHY
ROOT Hips
{
  OFFSET 81.1572 94.3232 10.4063
  CHANNELS 6 Xposition Yposition Zposition Zrotation Xrotation Yrotation
  JOINT spine
  {
    OFFSET 0 7.80059 0.448573
    CHANNELS 3 Zrotation Xrotation Yrotation
    JOINT spine1
    {
      OFFSET 0 10.1364 0
      CHANNELS 3 Zrotation Xrotation Yrotation
      JOINT spine2
      {
        OFFSET 0 9.71251 0
        CHANNELS 3 Zrotation Xrotation Yrotation
        JOINT Neck
        {
          OFFSET 0 24.9361 1.18887
          CHANNELS 3 Zrotation Xrotation Yrotation
          JOINT Head
          {
            OFFSET 0 7.53384 0
            CHANNELS 3 Zrotation Xrotation Yrotation
            End Site
            {
              OFFSET 0 18.2361 -6.01402
            }
          }
        }
        JOINT RightShoulder
        {
          OFFSET -4.08965 10.4888 -0.569457
          CHANNELS 3 Zrotation Xrotation Yrotation
          JOINT RightArm
          {
            OFFSET 0 13.757 0
            CHANNELS 3 Zrotation Xrotation Yrotation
            JOINT RightArmRoll
            {
              OFFSET 0 6.94478 0
              CHANNELS 3 Zrotation Xrotation Yrotation
              JOINT RightForeArm
              {
                OFFSET 0 20.2277 0
                CHANNELS 3 Zrotation Xrotation Yrotation
                JOINT RightForeArmRoll
                {
                  OFFSET 0 7.79312 0
                  CHANNELS 3 Zrotation Xrotation Yrotation
                  JOINT RightHand
                  {
                    OFFSET 0 15.6391 0
                    CHANNELS 3 Zrotation Xrotation Yrotation
                    End Site
                    {
                      OFFSET 0 0 0
                    }
                  }
                }
              }
            }
          }
        }
        JOINT LeftShoulder
        {
          OFFSET 4.08965 10.4888 -0.569457
          CHANNELS 3 Zrotation Xrotation Yrotation
          JOINT LeftArm
          {
            OFFSET 0 13.757 0
            CHANNELS 3 Zrotation Xrotation Yrotation
            JOINT LeftArmRoll
            {
              OFFSET 0 6.94478 0
              CHANNELS 3 Zrotation Xrotation Yrotation
              JOINT LeftForeArm
              {
                OFFSET 0 20.2277 0
                CHANNELS 3 Zrotation Xrotation Yrotation
                JOINT LeftForeArmRoll
                {
                  OFFSET 0 7.79312 0
                  CHANNELS 3 Zrotation Xrotation Yrotation
                  JOINT LeftHand
                  {
                    OFFSET 0 15.6391 0
                    CHANNELS 3 Zrotation Xrotation Yrotation
                    End Site
                    {
                      OFFSET 0 0 0
                    }
                  }
                }
              }
            }
          }
        }
      }
    }
  }
  JOINT RightUpLeg
  {
    OFFSET -6.91416 -1.26788 -1.06358
    CHANNELS 3 Zrotation Xrotation Yrotation
    JOINT RightUpLegRoll
    {
      OFFSET 0 18.3378 0
      CHANNELS 3 Zrotation Xrotation Yrotation
      JOINT RightLeg
      {
        OFFSET 0 -22.7085 0
        CHANNELS 3 Zrotation Xrotation Yrotation
        JOINT RightLegRoll
        {
          OFFSET 0 22.7828 0
          CHANNELS 3 Zrotation Xrotation Yrotation
          JOINT RightFoot
          {
            OFFSET 0 18.9629 0
            CHANNELS 3 Zrotation Xrotation Yrotation
            JOINT RightToeBase
            {
              OFFSET 0 15.852 0
              CHANNELS 3 Zrotation Xrotation Yrotation
              End Site
              {
                OFFSET 0.00671906 7.677 -0.884893
              }
            }
          }
        }
      }
    }
  }
  JOINT LeftUpLeg
  {
    OFFSET 6.91416 -1.26788 -1.06358
    CHANNELS 3 Zrotation Xrotation Yrotation
    JOINT LeftUpLegRoll
    {
      OFFSET 0 18.3379 0
      CHANNELS 3 Zrotation Xrotation Yrotation
      JOINT LeftLeg
      {
        OFFSET 0 22.7084 0
        CHANNELS 3 Zrotation Xrotation Yrotation
        JOINT LeftLegRoll
        {
          OFFSET 0 22.9934 0
          CHANNELS 3 Zrotation Xrotation Yrotation
          JOINT LeftFoot
          {
            OFFSET 0 18.7522 0
            CHANNELS 3 Zrotation Xrotation Yrotation
            JOINT LeftToeBase
            {
              OFFSET 0 15.852 0
              CHANNELS 3 Zrotation Xrotation Yrotation
              End Site
              {
                OFFSET -0.030112 7.677 -0.884893
              }
            }
          }
        }
      }
    }
  }
}
MOTION
Frames: 8
Frame Time: 0.00208333
53.2858 93.3443 13.2402 3.61068 -6.14982 -2.71267 -0.388955 0.892977 0.409953 -0.789194 5.7837 0.888679 -0.801346 7.4286 0.903105 -26.499 5.66251 5.69845 25.1825 -1.77872 3.19842 37.7654 -3.54776 -0.225152 170.566 35.4121 -85.2661 3.18055e-015 3.89618e-014 1.90833e-014 38.6193 35.1412 -11.5763 -1.03142e-006 -0.000581193 -3.00502 8.03068 -4.95129 0.697134 -70.0184 -4.51673 3.54605 -92.343 -5.05691 -10.978 -1.91843e-005 -1.89771e-006 -2.62726e-006 -10.3332 45.3604 7.04759 3.74895e-006 2.03179e-006 3 -8.02926 -4.95112 -0.697583 164.274 2.34215 5.31511 180 7.01612e-015 179.261 -177.797 15.4559 178.294 3.05188e-006 -7.80709e-006 -0.269142 -13.2356 69.4681 20.5463 8.13528 25.2615 -3.45225 178.884 -0.356897 6.3566 4.54188e-006 -4.6773e-006 -1.46102 -5.78107 -13.6971 -0.439078 -6.55742e-007 -3.52511e-006 -0.185857 23.5488 71.5773 -23.2477 -8.13649 25.2327 3.48774 
53.2939 93.3443 13.2406 3.61179 -6.14827 -2.7036 -0.387523 0.892945 0.409875 -0.786449 5.78382 0.886625 -0.798586 7.42873 0.901004 -26.5116 5.6726 5.72482 25.1973 -1.79541 3.22534 37.8014 -3.5347 -0.217076 170.4 35.3889 -85.2168 9.54166e-015 3.18055e-015 -3.18055e-015 38.6027 35.4014 -11.6766 -1.03142e-006 -0.000581193 -3.00502 8.03068 -4.95129 0.697134 -70.0009 -4.55385 3.56325 -92.3655 -5.17597 -10.8763 -1.91843e-005 -1.89771e-006 -2.62726e-006 -10.3977 45.6558 7.13299 3.74895e-006 2.03179e-006 3 -8.02926 -4.95112 -0.697583 164.278 2.35123 5.31081 180 7.01612e-015 179.259 -177.79 15.4746 178.293 3.05188e-006 -7.80709e-006 -0.267652 -13.2558 69.4787 20.555 8.13528 25.2615 -3.45225 178.879 -0.351364 6.3616 4.54188e-006 -4.6773e-006 -1.46126 -5.77989 -13.6997 -0.439262 -6.55742e-007 -3.52511e-006 -0.18586 23.5496 71.575 -23.2457 -8.13649 25.2327 3.48774 
53.3068 93.3452 13.2332 3.61271 -6.14676 -2.69524 -0.386059 0.892965 0.409798 -0.783626 5.78407 0.884479 -0.79575 7.42898 0.898809 -26.5251 5.68153 5.75078 25.213 -1.81132 3.25187 37.8355 -3.522 -0.209086 170.239 35.3659 -85.1687 6.36111e-015 2.94201e-014 -0 38.5889 35.6573 -11.7775 -1.03142e-006 -0.000581193 -3.00502 8.03068 -4.95129 0.697134 -69.984 -4.59113 3.58055 -92.3861 -5.29446 -10.7749 -1.91843e-005 -1.89771e-006 -2.62726e-006 -10.4649 45.9486 7.21976 3.74895e-006 2.03179e-006 3 -8.02926 -4.95112 -0.697583 164.282 2.36039 5.30638 180 7.01612e-015 179.258 -177.782 15.4929 178.291 3.05188e-006 -7.80709e-006 -0.266204 -13.2759 69.4889 20.5633 8.13528 25.2615 -3.45225 178.874 -0.346129 6.3665 4.54188e-006 -4.6773e-006 -1.46151 -5.77881 -13.702 -0.439446 -6.55742e-007 -3.52511e-006 -0.185859 23.5504 71.5726 -23.2435 -8.13649 25.2327 3.48774 
53.3112 93.3442 13.2301 3.61351 -6.14528 -2.68739 -0.384572 0.893022 0.409721 -0.78075 5.78441 0.882269 -0.792858 7.42932 0.89655 -26.5392 5.68963 5.77646 25.2293 -1.82667 3.27813 37.8682 -3.50956 -0.201155 170.081 35.3432 -85.1215 6.36111e-015 -5.56597e-015 -4.77083e-015 38.5775 35.9102 -11.879 -1.03142e-006 -0.000581193 -3.00502 8.03068 -4.95129 0.697134 -69.9676 -4.62851 3.59793 -92.4052 -5.41257 -10.6736 -1.91843e-005 -1.89771e-006 -2.62726e-006 -10.5344 46.2395 7.30782 3.74895e-006 2.03179e-006 3 -8.02926 -4.95112 -0.697583 164.287 2.3696 5.30187 180 7.01612e-015 179.257 -177.774 15.5108 178.29 3.05188e-006 -7.80709e-006 -0.264785 -13.2959 69.4987 20.5714 8.13528 25.2615 -3.45225 178.869 -0.341104 6.37132 4.54188e-006 -4.6773e-006 -1.46174 -5.7778 -13.704 -0.439632 -6.55742e-007 -3.52511e-006 -0.185854 23.5511 71.57 -23.2412 -8.13649 25.2327 3.48774 
53.3227 93.3433 13.2291 3.61422 -6.14382 -2.67984 -0.383071 0.893101 0.409646 -0.777841 5.7848 0.880022 -0.789935 7.42971 0.894252 -26.5537 5.69726 5.80198 25.2459 -1.84171 3.30424 37.9001 -3.49727 -0.19326 169.924 35.3207 -85.0747 1.27222e-014 0 -4.77083e-015 38.5678 36.1612 -11.9812 -1.03142e-006 -0.000581193 -3.00502 8.03068 -4.95129 0.697134 -69.9513 -4.66596 3.61535 -92.4234 -5.53049 -10.5725 -1.91843e-005 -1.89771e-006 -2.62726e-006 -10.6057 46.5293 7.39711 3.74895e-006 2.03179e-006 3 -8.02926 -4.95112 -0.697583 164.291 2.37883 5.29731 180 7.01612e-015 179.256 -177.766 15.5287 178.289 3.05188e-006 -7.80709e-006 -0.263384 -13.3159 69.5084 20.5793 8.13528 25.2615 -3.45225 178.863 -0.336201 6.3761 4.54188e-006 -4.6773e-006 -1.46198 -5.77684 -13.7059 -0.439817 -6.55742e-007 -3.52511e-006 -0.185848 23.5518 71.5674 -23.2387 -8.13649 25.2327 3.48774 
53.3347 93.3427 13.2258 3.61492 -6.14237 -2.67237 -0.381567 0.893184 0.40957 -0.774925 5.7852 0.877765 -0.787003 7.43012 0.891944 -26.5683 5.70476 5.82745 25.2627 -1.85665 3.3303 37.9318 -3.48501 -0.185374 169.768 35.2981 -85.0282 -6.36111e-015 1.74931e-014 1.59028e-015 38.5595 36.4116 -12.0843 -1.03142e-006 -0.000581193 -3.00502 8.03068 -4.95129 0.697134 -69.9351 -4.70342 3.63279 -92.4411 -5.64839 -10.4715 -1.91843e-005 -1.89771e-006 -2.62726e-006 -10.6785 46.8187 7.48759 3.74895e-006 2.03179e-006 3 -8.02926 -4.95112 -0.697583 164.295 2.38808 5.29273 180 7.01612e-015 179.255 -177.758 15.5464 178.287 3.05188e-006 -7.80709e-006 -0.261988 -13.3359 69.518 20.5873 8.13528 25.2615 -3.45225 178.858 -0.331331 6.38086 4.54188e-006 -4.6773e-006 -1.46221 -5.77588 -13.7077 -0.440003 -6.55742e-007 -3.52511e-006 -0.185841 23.5525 71.5647 -23.2363 -8.13649 25.2327 3.48774 
53.3332 93.3814 13.2327 3.61565 -6.1409 -2.66476 -0.38007 0.893259 0.409494 -0.772022 5.78558 0.875525 -0.784086 7.4305 0.889654 -26.5827 5.71248 5.85299 25.2793 -1.87174 3.35643 37.9639 -3.47269 -0.177472 169.611 35.2754 -84.9815 -3.18055e-015 1.90833e-014 4.77083e-015 38.552 36.6626 -12.1884 -1.03142e-006 -0.000581193 -3.00502 8.03068 -4.95129 0.697134 -69.9188 -4.74085 3.65021 -92.4585 -5.76646 -10.3704 -1.91843e-005 -1.89771e-006 -2.62726e-006 -10.7524 47.1085 7.57918 3.74895e-006 2.03179e-006 3 -8.02926 -4.95112 -0.697583 164.3 2.39731 5.28817 180 7.01611e-015 179.254 -177.75 15.5643 178.286 3.05188e-006 -7.80709e-006 -0.260584 -13.3559 69.5276 20.5953 8.13528 25.2615 -3.45225 178.853 -0.326406 6.38564 4.54188e-006 -4.6773e-006 -1.46245 -5.77491 -13.7096 -0.440188 -6.55742e-007 -3.52511e-006 -0.185834 23.5532 71.5621 -23.2339 -8.13649 25.2327 3.48774 
53.3422 93.3752 13.2273 3.61647 -6.13942 -2.65681 -0.378587 0.893308 0.409418 -0.769157 5.7859 0.873329 -0.781206 7.43082 0.887408 -26.5967 5.72075 5.87874 25.2956 -1.8872 3.38276 37.9968 -3.46019 -0.16953 169.452 35.2524 -84.9344 9.54166e-015 1.74931e-014 7.95139e-015 38.5448 36.9153 -12.2935 -1.03142e-006 -0.000581193 -3.00502 8.03068 -4.95129 0.697134 -69.9021 -4.7782 3.66759 -92.4763 -5.8849 -10.2691 -1.91843e-005 -1.89771e-006 -2.62726e-006 -10.827 47.3993 7.67186 3.74895e-006 2.03179e-006 3 -8.02926 -4.95112 -0.697583 164.304 2.40651 5.28368 180 7.01611e-015 179.253 -177.742 15.5824 178.285 3.05188e-006 -7.80709e-006 -0.259159 -13.376 69.5376 20.6034 8.13528 25.2615 -3.45225 178.848 -0.321337 6.39048 4.54188e-006 -4.6773e-006 -1.46269 -5.77389 -13.7117 -0.440373 -6.55742e-007 -3.52511e-006 -0.185831 23.554 71.5595 -23.2316 -8.13649 25.2327 3.48774 
